<svg width="71" height="70" viewBox="0 0 71 70" fill="none" xmlns="http://www.w3.org/2000/svg">
<g style="mix-blend-mode:multiply" opacity="0.4">
<path d="M71 61.4889C71 65.9056 55.1066 69.4846 35.5 69.4846C15.8934 69.4846 0 65.9056 0 61.4889C0 57.0723 15.8934 53.5114 35.5 53.5114C55.1066 53.5114 71 57.0759 71 61.4889Z" fill="#DB9289"/>
</g>
<path d="M28.2151 26.1884C28.2151 26.1884 23.7114 29.9378 20.9628 34.126C18.2142 38.3142 15.4547 44.7071 17.2605 45.2982C19.5631 46.0524 20.6908 43.5939 24.1175 38.9597C26.1808 36.1639 27.7763 33.7525 27.7763 33.7525C27.7763 33.7525 29.4045 26.6235 28.2151 26.1884Z" fill="#DB9289"/>
<path opacity="0.4" d="M28.2151 26.1884C28.2151 26.1884 27.3883 26.8773 26.228 28.0014C26.877 30.2351 26.9206 32.6139 26.8553 34.9673C27.4464 34.2166 27.7763 33.7598 27.7763 33.7598C27.7763 33.7598 29.4045 26.6235 28.2151 26.1884Z" fill="#DB9289"/>
<path opacity="0.2" d="M18.856 43.1007C22.3769 39.6341 26.3585 34.0354 28.2549 31.2505C28.0192 32.6284 27.7654 33.7525 27.7654 33.7525C27.7654 33.7525 26.1699 36.1639 24.1066 38.9597C22.6562 40.9214 21.6155 42.4916 20.7234 43.5939C20.1321 43.3284 19.5013 43.1617 18.856 43.1007Z" fill="#DB9289"/>
<path d="M42.5347 26.1884C42.5347 26.1884 47.0348 29.9378 49.787 34.126C52.5393 38.3142 55.2915 44.7071 53.4893 45.2982C51.1867 46.0524 50.059 43.5939 46.6323 38.9597C44.569 36.1639 42.9735 33.7525 42.9735 33.7525C42.9735 33.7525 41.3381 26.6235 42.5347 26.1884Z" fill="#DB9289"/>
<path opacity="0.4" d="M42.5347 26.1884C42.5347 26.1884 43.3615 26.8773 44.5219 28.0014C43.8728 30.2351 43.8293 32.6139 43.8945 34.9673C43.3035 34.2166 42.9735 33.7598 42.9735 33.7598C42.9735 33.7598 41.3381 26.6235 42.5347 26.1884Z" fill="#DB9289"/>
<path opacity="0.2" d="M51.8829 43.1007C48.3619 39.6341 44.3804 34.0354 42.4839 31.2505C42.716 32.6284 42.9735 33.7525 42.9735 33.7525C42.9735 33.7525 44.569 36.1639 46.6323 38.9597C48.0827 40.9214 49.1234 42.4916 50.0155 43.5939C50.6067 43.3284 51.2376 43.1617 51.8829 43.1007Z" fill="#DB9289"/>
<path d="M67.6567 56.1295C66.4238 51.0529 43.8909 50.0955 43.8909 50.0955C42.4426 48.872 40.877 47.7947 39.2168 46.8792L35.5145 46.7196H35.4673L31.765 46.8792C31.765 46.8792 29.263 48.4094 27.8597 50.0013C27.8597 50.0013 4.47103 51.0347 3.32516 56.1295C1.91822 62.3701 17.2314 67.2835 35.9206 63.6283C54.6098 67.2835 69.176 62.3701 67.6567 56.1295Z" fill="#DB9289"/>
<path d="M42.9989 30.2497L42.5602 26.1884C40.5022 24.7765 38.1135 23.922 35.627 23.7081H35.3731C32.8855 23.9223 30.4958 24.7768 28.4363 26.1884L28.0012 30.2497C28.0012 30.2497 25.7348 35.6563 29.4154 39.6414C29.6873 41.5886 29.9992 43.5359 30.4234 45.4432C30.6918 46.6616 30.786 47.7313 31.9609 48.3877C33.3751 49.1854 34.7494 49.1673 36.3123 49.1129C38.1906 49.0621 40.1887 48.569 40.6927 46.4694C41.2257 44.243 41.4179 41.8932 41.5811 39.616C45.2653 35.6563 42.9989 30.2497 42.9989 30.2497Z" fill="#DB9289"/>
<path opacity="0.2" d="M30.4234 45.4541C30.4887 45.7478 30.5431 46.0342 30.6084 46.3062C30.8669 46.3829 31.1181 46.4824 31.359 46.6036C33.3352 47.5862 36.4356 47.2816 38.8724 46.6398C39.5214 46.473 40.1596 46.2772 40.787 46.0741C41.1994 43.9506 41.466 41.8013 41.5847 39.6413C45.2653 35.6526 42.9989 30.2496 42.9989 30.2496L42.5602 26.1883C41.4692 25.4408 40.2809 24.8466 39.0283 24.4224C38.7254 25.092 38.235 25.6595 37.6164 26.0564C36.9979 26.4532 36.2776 26.6623 35.5427 26.6585C34.8078 26.6547 34.0897 26.438 33.4753 26.0348C32.8609 25.6315 32.3765 25.0589 32.0806 24.3861C30.7937 24.8196 29.5733 25.4298 28.4544 26.1992L28.0193 30.2605C28.0193 30.2605 25.753 35.6671 29.4335 39.6522C29.6873 41.5886 29.9992 43.5358 30.4234 45.4541Z" fill="#DB9289"/>
<path d="M42.9989 30.2497L42.5892 26.4495C42.5706 26.3514 42.5463 26.2546 42.5166 26.1594C41.3887 25.3875 40.1584 24.7773 38.8615 24.3463C38.743 25.1493 38.3397 25.8829 37.7253 26.4133C37.1109 26.9437 36.3262 27.2355 35.5145 27.2355C34.7029 27.2355 33.9182 26.9437 33.3038 26.4133C32.6894 25.8829 32.2861 25.1493 32.1676 24.3463C30.844 24.7704 29.5876 25.3808 28.4363 26.1594L28.0012 30.2206C28.0012 30.2206 25.7348 35.6272 29.4154 39.6124C29.6801 41.5088 29.9847 43.4089 30.3944 45.28C30.3944 45.3054 30.3944 45.3308 30.3944 45.3562C33.6181 46.8429 37.4255 46.5492 40.9356 45.2402C41.1895 43.855 41.3381 42.4371 41.4542 41.0338C41.4542 41.0084 41.4542 40.9867 41.4542 40.9649L41.563 39.6124C45.2653 35.6562 42.9989 30.2497 42.9989 30.2497Z" fill="#DB9289"/>
<g style="mix-blend-mode:multiply" opacity="0.5">
<path d="M42.5528 33.3609C41.7913 33.9048 40.6745 34.0571 39.7824 34.1115C38.2957 34.1115 37.1136 33.1107 35.6668 33.1324C34.2199 33.1542 32.7658 33.9229 31.3408 33.9229C30.617 33.9223 29.9007 33.776 29.2347 33.4925C28.5687 33.209 27.9666 32.7943 27.4644 32.273C27.1381 34.2094 27.1453 37.2046 29.4153 39.6595C29.5603 40.7147 29.7235 41.7735 29.9084 42.8251C30.5271 41.863 31.3845 41.0777 32.3971 40.5457C33.4097 40.0137 34.5429 39.7533 35.6861 39.7898C36.8294 39.8264 37.9436 40.1586 38.9202 40.7541C39.8968 41.3496 40.7023 42.1881 41.2583 43.1877C41.3417 42.4625 41.4106 41.7699 41.4686 41.0664C41.4686 41.041 41.4686 41.0193 41.4686 40.9975L41.5774 39.645C43.7204 37.3242 43.8474 34.5212 43.579 32.5849C43.2521 32.863 42.9095 33.1221 42.5528 33.3609Z" fill="#DB9289"/>
</g>
<path d="M37.0774 27.9761C36.8541 28.0562 36.6233 28.1133 36.3884 28.1465C36.0496 28.1806 35.7077 28.1659 35.3731 28.103C35.0351 28.0509 34.7058 27.9533 34.394 27.8129C34.0883 27.6477 33.7939 27.4624 33.5129 27.2581C33.7198 27.5538 33.9962 27.7942 34.3179 27.9579C34.6357 28.1301 34.9782 28.2524 35.3332 28.3205C35.6946 28.3727 36.0621 28.3653 36.4211 28.2988C36.6634 28.2474 36.8977 28.1633 37.1173 28.0486C37.2206 28.003 37.3132 27.9363 37.3892 27.8528C37.2809 27.8818 37.1763 27.9232 37.0774 27.9761Z" fill="#DB9289"/>
<path d="M36.965 37.948C36.7763 37.7929 36.563 37.6703 36.334 37.5853C36.0017 37.4648 35.6535 37.394 35.3006 37.375C34.9487 37.376 34.5981 37.4186 34.2562 37.5019C33.9132 37.5736 33.5902 37.7196 33.3098 37.9298C33.3098 37.9588 33.7921 37.7413 34.2925 37.6651C34.6233 37.6123 34.9587 37.5941 35.2933 37.6107C35.6265 37.612 35.9582 37.6571 36.2796 37.7449C36.5015 37.8061 36.7138 37.8976 36.9106 38.0169C37.0738 38.1111 37.1717 38.1982 37.1862 38.18C37.2007 38.1619 37.1173 38.0749 36.965 37.948Z" fill="#DB9289"/>
<path d="M36.1201 38.3178C36.0037 38.2654 35.8822 38.2253 35.7575 38.1981C35.7014 38.1837 35.6445 38.1728 35.5871 38.1655C35.4006 38.1642 35.215 38.1898 35.0359 38.2417C34.8574 38.2857 34.6937 38.3757 34.5609 38.5027C34.7333 38.4816 34.9041 38.4489 35.0721 38.4048C35.2372 38.3859 35.4039 38.3859 35.5689 38.4048H35.7212C35.8364 38.4159 35.9504 38.4365 36.0621 38.4665C36.2232 38.5343 36.3909 38.5854 36.5625 38.6188C36.4401 38.4859 36.2887 38.3829 36.1201 38.3178Z" fill="#DB9289"/>
<g style="mix-blend-mode:multiply" opacity="0.5">
<path d="M29.2811 28.0776C29.1766 28.4834 29.027 28.8762 28.8351 29.2488L28.2839 30.3729L28.1171 30.7355C28.0084 30.9386 27.9068 31.2287 27.7908 31.5152C27.5914 32.099 27.5551 32.719 27.5152 32.719C27.4962 32.5892 27.4962 32.4573 27.5152 32.3274C27.5299 32.0373 27.5737 31.7494 27.6457 31.468C27.727 31.1896 27.8238 30.916 27.9358 30.6485L28.0881 30.2859C28.0881 30.2859 28.3782 29.7275 28.6865 29.198C28.9947 28.6686 29.2449 28.0667 29.2811 28.0776Z" fill="#DB9289"/>
</g>
<g style="mix-blend-mode:multiply" opacity="0.5">
<path d="M43.5138 32.9982C43.4739 32.9982 43.4195 32.3963 43.2019 31.8343C43.0457 31.4628 42.8702 31.0996 42.6761 30.7464C42.6761 30.7464 42.4006 30.2097 42.1395 29.6586C41.964 29.2897 41.8419 28.8978 41.7769 28.4946C41.8131 28.4946 42.0126 29.053 42.3026 29.5824L42.8973 30.6412L43.0569 31.0039C43.162 31.2106 43.26 31.5043 43.3687 31.7907C43.4484 32.0661 43.497 32.3495 43.5138 32.6356C43.532 32.7558 43.532 32.8781 43.5138 32.9982Z" fill="#DB9289"/>
</g>
<g opacity="0.8">
<path d="M30.7425 54.5485H39.3764C39.7161 54.5346 40.0522 54.622 40.3421 54.7996C40.6319 54.9771 40.8625 55.2368 41.0045 55.5457C41.0408 55.5892 41.0771 55.6363 41.1097 55.6835C40.6601 53.457 41.9038 50.828 44.8446 50.828H52.4994C47.829 50.2624 43.891 50.1028 43.891 50.1028C43.1268 49.4507 42.3239 48.8452 41.4868 48.2897C38.6621 51.5533 34.0133 51.4807 30.4706 49.5009C30.0512 49.2695 29.6815 48.9578 29.3827 48.5835C28.8325 49.0253 28.3184 49.5103 27.8453 50.0339C23.3168 50.2637 18.8041 50.7383 14.327 51.4554H27.0004C27.895 51.4219 28.7707 51.7186 29.4607 52.289C30.1508 52.8593 30.607 53.6635 30.7425 54.5485Z" fill="#DB9289"/>
<path d="M57.7029 60.9994C53.5474 61.3838 48.5614 61.5905 44.4493 60.14C43.7458 59.9449 43.0741 59.6494 42.455 59.2625L42.3897 59.2299C42.2279 59.142 42.079 59.0322 41.9473 58.9035C41.7716 58.7664 41.6033 58.6199 41.4433 58.4647C41.3178 58.3423 41.2082 58.2046 41.1169 58.055C40.9831 58.2217 40.8226 58.365 40.6419 58.4793L40.5295 58.5481C40.3892 58.7442 40.2085 58.9078 39.9996 59.0279C39.7906 59.148 39.5583 59.2218 39.3183 59.2444C34.5391 61.8008 28.8859 62.3085 23.5337 62.1743C17.2351 62.0184 10.6681 61.6086 4.67774 59.5163C4.54179 59.4683 4.41066 59.4076 4.28612 59.335H4.11206C7.54602 63.8677 20.5965 66.6236 35.917 63.6284C51.8975 66.7541 64.8573 63.6284 67.334 58.7403H66.6087C63.7755 59.9514 60.7708 60.7135 57.7029 60.9994Z" fill="#DB9289"/>
</g>
<path d="M29.5278 51.1037L29.8251 51.314L30.1152 51.5316C30.2965 51.6548 30.5068 51.8579 30.7317 52.0465C31.1559 52.449 31.4968 52.9276 31.5294 52.9095C31.3578 52.5477 31.1274 52.2169 30.8477 51.9304C30.661 51.7301 30.4624 51.5412 30.253 51.3647L29.9629 51.1254L29.6474 50.9224C29.4135 50.7767 29.1714 50.6447 28.9222 50.5271C28.5646 50.3476 28.1778 50.2334 27.78 50.1899C27.78 50.2261 28.3384 50.3893 28.8678 50.6758C29.0951 50.8068 29.3154 50.9496 29.5278 51.1037Z" fill="#F29FB6"/>
<path d="M43.0678 50.6395C42.7756 50.7829 42.4965 50.9515 42.2337 51.1435C41.9886 51.3571 41.7584 51.5873 41.5448 51.8325C41.3272 52.0704 41.1441 52.3377 41.0009 52.6266C41.2348 52.411 41.4575 52.1834 41.6681 51.9449C41.8987 51.7267 42.1408 51.5209 42.3933 51.3284C42.6354 51.1296 42.8911 50.9479 43.1584 50.7845C43.5682 50.5524 44.0214 50.4219 44.0142 50.3784C43.6846 50.4022 43.363 50.491 43.0678 50.6395Z" fill="#F29FB6"/>
<path d="M32.998 49.5662C33.3606 49.6858 33.7595 49.8127 34.0532 49.8744L34.4158 49.9614C34.4594 49.9756 34.5044 49.9853 34.55 49.9904L35.0467 50.0557C35.2163 50.0782 35.387 50.0903 35.558 50.092C35.7466 50.092 35.946 50.121 36.1455 50.092C36.51 50.0856 36.8735 50.0529 37.2333 49.994C37.3999 49.9799 37.5643 49.9458 37.7228 49.8925C37.7228 49.849 36.9287 49.9578 36.1418 49.9251C35.946 49.9251 35.7502 49.8961 35.5689 49.8853C35.3876 49.8744 35.2063 49.8563 35.0721 49.8272L34.5898 49.7438C34.5447 49.7395 34.4999 49.7322 34.4557 49.7221L34.0931 49.6496C33.803 49.5988 33.4222 49.4936 33.0415 49.3957C32.2836 49.1709 31.5294 48.9243 31.5185 48.957C31.6616 49.0431 31.8136 49.1136 31.9718 49.1673C32.2727 49.316 32.6353 49.432 32.998 49.5662Z" fill="#F29FB6"/>
<path d="M41.9473 60.2742L41.5847 59.1682L41.0552 57.5618C41.0552 57.5618 40.6926 56.7894 40.3626 56.0207L39.8731 54.9691C39.8224 54.8639 39.7825 54.7769 39.7426 54.7044H39.8078C39.8561 54.709 39.9047 54.709 39.9529 54.7044H39.8078H39.7281C39.703 54.6417 39.6688 54.583 39.6265 54.5303C39.6265 54.5303 39.6265 54.5992 39.6701 54.7044H39.4017L37.9513 54.679L33.5346 54.6427L27.1236 54.5738L20.7017 54.6065L16.285 54.6427L14.8346 54.6681H14.4248H14.2834C14.3304 54.6729 14.3778 54.6729 14.4248 54.6681H14.8346L16.285 54.6899L20.7017 54.7261L27.1236 54.7624L33.5455 54.7261L37.9621 54.6899L39.4126 54.6681H39.6918L39.8006 54.9691C39.9166 55.2628 40.0689 55.6581 40.2212 56.0569C40.5367 56.8366 40.8486 57.6162 40.8486 57.6162C40.8486 57.6162 41.1423 58.4067 41.4396 59.1936L41.8566 60.2814C41.9255 60.4555 41.9835 60.586 42.0234 60.6694C41.9763 60.6694 41.1967 61.0937 40.4062 61.5107L38.749 62.2758L37.0737 63.001C36.6495 63.1678 36.218 63.3129 35.8989 63.4398C35.7164 63.4997 35.5393 63.5749 35.3694 63.6646C35.5602 63.6398 35.7475 63.5935 35.9279 63.5268C36.2542 63.4289 36.7002 63.3056 37.1318 63.1642L38.8433 62.497L40.4823 61.6666C40.8812 61.4418 41.2656 61.1879 41.5702 61.003C41.7347 60.9103 41.8901 60.8022 42.0343 60.6803C42.0597 60.7347 42.0778 60.7709 42.0851 60.7709C42.0559 60.6011 42.0098 60.4347 41.9473 60.2742Z" fill="#F29FB6"/>
<path d="M14.6351 54.9147C14.3868 54.7736 14.1314 54.6453 13.87 54.5303C13.87 54.5303 13.4639 54.3925 13.0541 54.2838C12.7838 54.197 12.5035 54.1446 12.2201 54.1278C12.4717 54.2579 12.7352 54.3636 13.007 54.4433C13.4022 54.5884 13.7866 54.7515 13.7866 54.7515C13.7866 54.7515 14.1818 54.8893 14.5626 55.0634C14.9433 55.2374 15.2878 55.4659 15.3132 55.426C15.1178 55.2183 14.8885 55.0454 14.6351 54.9147Z" fill="#F29FB6"/>
<path d="M58.566 54.3273C58.149 54.4107 57.7392 54.5267 57.7392 54.5267C57.7392 54.5267 57.5942 54.5775 57.402 54.6572H57.1119L55.8174 54.621L53.939 54.5883L52.0571 54.621L50.7661 54.6572C50.5693 54.6552 50.3727 54.671 50.1787 54.7044C50.3723 54.7412 50.5691 54.7582 50.7661 54.7551L52.0571 54.7914L53.939 54.8277L55.8174 54.7914L57.1119 54.7551H57.2316L56.9487 54.8893C56.6889 55.0096 56.4511 55.1726 56.2453 55.3716C56.267 55.4006 56.6296 55.1903 57.0176 55.038C57.4056 54.8857 57.8117 54.7733 57.8117 54.7733C57.8117 54.7733 58.2034 54.6355 58.6059 54.5158C58.8819 54.4512 59.1513 54.3614 59.4109 54.2475C59.127 54.2394 58.8433 54.2662 58.566 54.3273Z" fill="#F29FB6"/>
<path d="M5.45736 55.0598C5.56615 55.1939 5.45736 55.4732 5.19628 55.6835C4.9352 55.8938 4.64511 55.9554 4.53632 55.8213C4.42754 55.6871 4.53632 55.4079 4.7974 55.1976C5.05849 54.9872 5.34858 54.9256 5.45736 55.0598Z" fill="#F29FB6"/>
<path d="M6.6395 54.3925C6.7084 54.4941 6.60687 54.6863 6.40743 54.8204C6.20799 54.9546 5.99405 54.98 5.92153 54.8748C5.849 54.7697 5.95416 54.5811 6.1536 54.4469C6.35304 54.3128 6.57061 54.2765 6.6395 54.3925Z" fill="#F29FB6"/>
<path d="M65.5172 55.0598C65.4048 55.1939 65.5172 55.4732 65.7783 55.6835C66.0394 55.8938 66.3295 55.9554 66.4383 55.8213C66.5471 55.6871 66.4383 55.4079 66.1772 55.1976C65.9161 54.9872 65.6333 54.9256 65.5172 55.0598Z" fill="#F29FB6"/>
<path d="M64.3351 54.3925C64.2662 54.4941 64.3677 54.6863 64.5671 54.8204C64.7666 54.9546 64.9805 54.98 65.053 54.8748C65.1256 54.7697 65.0204 54.5811 64.821 54.4469C64.6215 54.3128 64.404 54.2765 64.3351 54.3925Z" fill="#F29FB6"/>
<path d="M28.8569 54.6899L27.0982 53.8668C27.0584 53.1089 26.6196 52.0537 25.122 51.6911C23.3633 51.2632 20.0164 53.0509 18.4354 52.2531C16.8544 51.4554 14.5264 52.4344 14.0622 53.8124C13.5981 55.1903 16.713 54.2475 16.713 54.2475L18.1997 54.6899H28.8569Z" fill="#FAD0BF"/>
<path opacity="0.2" d="M28.857 54.6899L27.0983 53.8668C27.0852 53.5958 27.0238 53.3293 26.917 53.0799C26.769 53.5504 26.4698 53.959 26.066 54.2422C25.6621 54.5255 25.1761 54.6675 24.6833 54.6464C23.7985 54.6464 23.4286 54.2475 22.8049 53.7399C22.1812 53.2322 21.3544 53.156 20.5386 53.1415C19.6574 53.1415 18.9322 53.6456 18.0583 53.6456C17.4201 53.6456 16.9015 53.283 16.2633 53.4316C15.7593 53.5477 15.3205 53.8958 14.8129 53.8958C14.5666 53.8951 14.3219 53.856 14.0876 53.7797V53.8124C13.6271 55.1903 16.7384 54.2475 16.7384 54.2475L18.2251 54.6899H28.857Z" fill="#DB9289"/>
<path d="M16.5606 53.7543C16.4576 53.733 16.3604 53.6895 16.2759 53.6269C16.1914 53.5643 16.1215 53.4841 16.0711 53.3917C15.9922 53.271 15.9358 53.1371 15.9043 52.9965C15.8705 52.8681 15.8705 52.7332 15.9043 52.6049C15.9358 52.4642 15.9922 52.3303 16.0711 52.2096C16.2487 51.9376 16.5533 51.847 16.5606 51.847C16.5678 51.847 16.3285 52.0283 16.198 52.2749C16.1446 52.3892 16.1114 52.5119 16.1001 52.6375C16.0969 52.6906 16.0969 52.7439 16.1001 52.797C16.0969 52.8514 16.0969 52.9059 16.1001 52.9602C16.1114 53.0858 16.1446 53.2085 16.198 53.3228C16.3176 53.5694 16.5751 53.7217 16.5606 53.7543Z" fill="#DB9289"/>
<path d="M14.0586 54.3164C14.0586 54.3164 14.0187 54.233 14.0332 54.0988C14.053 53.9362 14.1142 53.7814 14.2109 53.6492C14.3043 53.5131 14.4167 53.391 14.5445 53.2866L14.7258 53.1597C14.9356 53.0526 15.1627 52.9838 15.3966 52.9566C15.5577 52.9355 15.7214 52.9516 15.8753 53.0037C15.9986 53.0472 16.0675 53.1089 16.0602 53.1161C16.053 53.1234 15.9732 53.1161 15.8535 53.0908C15.7091 53.0743 15.5629 53.0841 15.422 53.1198C15.2166 53.1701 15.0207 53.2534 14.8418 53.3663L14.6714 53.4643C14.5499 53.5414 14.439 53.6341 14.3414 53.7398C14.245 53.8453 14.1699 53.9685 14.1202 54.1025C14.084 54.2294 14.0803 54.3128 14.0586 54.3164Z" fill="#DB9289"/>
<path d="M27.1091 53.8124C27.0873 53.8124 27.0257 53.5585 26.8589 53.2032C26.6602 52.7708 26.3403 52.4055 25.9378 52.1516C25.5249 51.9218 25.0645 51.7903 24.5925 51.7672C24.3765 51.7491 24.1594 51.7491 23.9434 51.7672C23.7265 51.7708 23.5099 51.7853 23.2944 51.8107C22.8153 51.8707 22.3396 51.9554 21.8693 52.0646C21.3544 52.1842 20.8431 52.322 20.4587 52.4272C20.2469 52.4939 20.0297 52.5424 19.8096 52.5722C20.0113 52.4789 20.2198 52.4014 20.4333 52.3402C20.7959 52.2132 21.3145 52.0501 21.8294 51.9123C22.3064 51.781 22.7907 51.6781 23.2799 51.604C23.5009 51.5705 23.7237 51.5487 23.9471 51.5388C24.1733 51.5292 24.4 51.5365 24.6252 51.5605C25.1266 51.5986 25.6116 51.7565 26.0394 52.0211C26.4562 52.3022 26.7765 52.7048 26.9568 53.1742C27.0172 53.3245 27.0645 53.4798 27.0982 53.6383C27.1095 53.6956 27.1131 53.7541 27.1091 53.8124Z" fill="#DB9289"/>
<path d="M40.9972 57.5437L52.0679 54.2475C52.0679 54.2475 55.1791 55.1903 54.7186 53.8124C54.2581 52.4344 51.9301 51.4554 50.3491 52.2531C48.7681 53.0509 45.4211 51.2632 43.6588 51.6911C42.1612 52.0537 41.7225 53.1089 41.6826 53.8668L39.8333 54.7334L40.9972 57.5437Z" fill="#FAD0BF"/>
<path opacity="0.2" d="M41.7007 53.8668C41.7169 53.5958 41.7795 53.3297 41.8856 53.0799C42.033 53.5502 42.3314 53.9586 42.7346 54.2419C43.1379 54.5251 43.6234 54.6673 44.1157 54.6464C45.0005 54.6464 45.374 54.2475 45.9941 53.7399C46.6141 53.2322 47.4445 53.156 48.264 53.1415C49.1452 53.1415 49.8668 53.6456 50.7407 53.6456C51.3825 53.6456 51.8974 53.283 52.5538 53.4316C53.0542 53.5477 53.4929 53.8958 54.0042 53.8958C54.2506 53.8955 54.4953 53.8563 54.7295 53.7797V53.8124C55.19 55.1903 52.0787 54.2475 52.0787 54.2475L41.0081 57.5437L39.8441 54.7334L41.7007 53.8668Z" fill="#DB9289"/>
<path d="M52.2165 53.7543C52.3189 53.7325 52.4153 53.6888 52.4992 53.6262C52.5831 53.5637 52.6524 53.4837 52.7024 53.3917C52.7827 53.2718 52.8394 53.1377 52.8692 52.9965C52.903 52.8681 52.903 52.7332 52.8692 52.6049C52.8394 52.4637 52.7827 52.3295 52.7024 52.2096C52.5248 51.9376 52.2238 51.847 52.2165 51.847C52.2093 51.847 52.4486 52.0283 52.561 52.2749C52.6132 52.3894 52.6451 52.5121 52.6553 52.6375C52.6594 52.6906 52.6594 52.7439 52.6553 52.797C52.6594 52.8514 52.6594 52.9059 52.6553 52.9602C52.6451 53.0856 52.6132 53.2083 52.561 53.3228C52.4559 53.5694 52.2165 53.7217 52.2165 53.7543Z" fill="#DB9289"/>
<path d="M54.7223 54.3164C54.758 54.2498 54.7683 54.1725 54.7513 54.0988C54.7282 53.9371 54.6673 53.783 54.5736 53.6492C54.4779 53.5138 54.3645 53.3918 54.2363 53.2866L54.0587 53.1596C53.8489 53.0526 53.6217 52.9838 53.3878 52.9566C53.2268 52.9354 53.063 52.9515 52.9092 53.0037C52.7823 53.0472 52.717 53.1089 52.7242 53.1161C52.7315 53.1234 52.8113 53.1161 52.9309 53.0907C53.0753 53.0744 53.2215 53.0843 53.3624 53.1198C53.5676 53.171 53.7634 53.2542 53.9426 53.3663L54.1094 53.4642C54.2316 53.5405 54.3426 53.6332 54.4394 53.7398C54.537 53.8444 54.6123 53.9678 54.6606 54.1024C54.7005 54.2294 54.7041 54.3128 54.7223 54.3164Z" fill="#DB9289"/>
<path d="M41.6753 53.8124C41.6971 53.8124 41.7551 53.5586 41.9219 53.2032C42.122 52.7707 42.4432 52.4054 42.8466 52.1516C43.2593 51.9213 43.7198 51.7898 44.1919 51.7672C44.4079 51.7491 44.625 51.7491 44.841 51.7672C44.841 51.7672 45.0984 51.7672 45.4901 51.8107C45.9691 51.8707 46.4448 51.9554 46.9151 52.0646C47.4264 52.1842 47.9413 52.322 48.3257 52.4272C48.5374 52.4943 48.7546 52.5428 48.9748 52.5722C48.7732 52.479 48.5646 52.4014 48.3511 52.3402C47.9885 52.2132 47.4663 52.0501 46.955 51.9123C46.478 51.781 45.9937 51.6781 45.5046 51.6041C45.2823 51.5704 45.0583 51.5486 44.8337 51.5388C44.6087 51.5292 44.3832 51.5365 44.1593 51.5605C43.6567 51.599 43.1706 51.7569 42.7414 52.0211C42.3256 52.3033 42.0055 52.7055 41.824 53.1742C41.7645 53.3245 41.7184 53.4799 41.6862 53.6383C41.6753 53.7435 41.6645 53.8124 41.6753 53.8124Z" fill="#DB9289"/>
<path d="M42.8466 56.5682C42.8466 56.5682 42.9627 56.6081 43.1403 56.6335C43.2423 56.6511 43.3452 56.662 43.4486 56.6661H43.8112C43.9336 56.663 44.0552 56.646 44.1738 56.6154C44.279 56.6031 44.3824 56.5788 44.482 56.5428L44.7685 56.4304L44.8483 56.3942L45.0296 56.26C45.2131 56.1266 45.3756 55.9665 45.5118 55.785C45.703 55.5199 45.8274 55.2127 45.8745 54.8893C45.8309 54.8893 45.6823 55.3281 45.3885 55.6834C45.2484 55.8367 45.0887 55.9708 44.9135 56.0823L44.7431 56.1911L44.6706 56.2201L44.4167 56.3398C44.3265 56.3773 44.2331 56.4064 44.1375 56.4268C44.0305 56.4628 43.9198 56.4871 43.8075 56.4993L43.4703 56.5428C43.3713 56.548 43.272 56.548 43.173 56.5428C43.0635 56.533 42.9532 56.5416 42.8466 56.5682Z" fill="#DB9289"/>
<path d="M31.6418 53.5114L32.396 53.1161L32.5592 53.0219C32.5846 53.1415 32.5954 53.2141 32.5954 53.2141C36.1019 51.9413 39.1225 53.486 39.4851 54.6282C39.5141 54.7262 39.3763 54.8096 39.2603 54.8785L32.3706 54.8567L31.9863 54.8059C31.5997 54.4912 31.2428 54.1416 30.9202 53.7616C31.1729 53.7186 31.4167 53.6341 31.6418 53.5114Z" fill="#DB9289"/>
<path d="M37.7591 54.2838C37.5647 54.1615 37.361 54.0548 37.1499 53.9647L36.8634 53.845L36.5624 53.7797C36.3436 53.7356 36.1218 53.7077 35.8989 53.6963C35.5707 53.6773 35.2424 53.7318 34.9379 53.8559C34.9379 53.8958 35.4166 53.8232 35.8844 53.8813C36.0985 53.9127 36.3104 53.9575 36.5189 54.0154L36.8018 54.0988L37.0774 54.1931C37.2842 54.2636 37.4854 54.3497 37.6793 54.4506C38.1072 54.6718 38.4734 55.009 38.4988 54.9836C38.302 54.7027 38.0504 54.4647 37.7591 54.2838Z" fill="#DB9289"/>
<path d="M39.1044 54.563C39.2458 54.7081 39.3256 54.8241 39.3437 54.8096C39.3066 54.6949 39.2489 54.588 39.1733 54.4941C39.0195 54.2895 38.8376 54.1076 38.633 53.9538C38.434 53.803 38.2216 53.6706 37.9984 53.5586C37.8171 53.4679 37.6938 53.4135 37.6938 53.4135C37.3616 53.2956 37.0193 53.2082 36.6712 53.1524C36.3284 53.0735 35.9731 53.0649 35.6269 53.1271C35.6269 53.1597 36.1418 53.1996 36.6422 53.3337C36.9747 53.4193 37.3006 53.5284 37.6176 53.6601C37.9409 53.7768 38.2509 53.9275 38.5423 54.1097C38.7464 54.2388 38.935 54.3909 39.1044 54.563Z" fill="#DB9289"/>
<path opacity="0.2" d="M31.6418 53.5114L32.396 53.1161L32.5592 53.0219C32.5846 53.1415 32.5954 53.2141 32.5954 53.2141C33.0447 53.0538 33.5069 52.9324 33.977 52.8514C33.2264 53.5332 33.7631 54.3019 34.4702 54.8676H32.3525L31.9681 54.8168C31.5816 54.502 31.2247 54.1525 30.902 53.7725C31.1616 53.7281 31.4118 53.6398 31.6418 53.5114Z" fill="#DB9289"/>
<path d="M32.4214 52.6665C32.2726 52.5961 32.1285 52.5161 31.9899 52.4272L31.8521 52.3329C31.6128 52.1552 31.388 51.9449 31.1269 51.7672L29.0201 50.2334C27.479 49.1093 25.9342 47.9888 24.404 46.8502C21.601 44.7688 19.574 41.857 17.5905 43.4307C17.33 43.685 17.1246 43.9901 16.9871 44.327C16.8496 44.664 16.7828 45.0257 16.791 45.3896C16.7991 45.7535 16.882 46.1118 17.0345 46.4423C17.1871 46.7728 17.4059 47.0684 17.6775 47.3107C19.661 49.345 29.2812 53.9828 31.2393 54.2004C31.514 54.2251 31.7909 54.2042 32.0588 54.1387C32.3339 53.6993 32.461 53.1834 32.4214 52.6665Z" fill="#DB9289"/>
<path opacity="0.2" d="M32.3671 53.4207C32.2728 53.4207 32.1713 53.4207 32.0589 53.4207C29.9775 53.1814 27.78 51.8688 25.8944 50.955C23.5483 49.8164 21.1224 48.6234 19.0229 46.9988C18.0003 46.2083 16.9559 45.5194 16.8472 44.0073C16.6787 44.5842 16.6668 45.1957 16.8128 45.7787C16.9587 46.3618 17.2572 46.8956 17.6776 47.3252C19.6611 49.3595 29.2812 53.9973 31.2393 54.2149C31.5376 54.2797 31.8494 54.2305 32.1132 54.0771C32.2439 53.879 32.3304 53.6552 32.3671 53.4207Z" fill="#DB9289"/>
<path d="M18.7254 43.1515C18.7744 43.1617 18.825 43.1617 18.8741 43.1515C18.9945 43.1363 19.1163 43.1363 19.2367 43.1515C19.6205 43.1957 19.991 43.3192 20.3245 43.5141C20.6652 43.7011 20.9891 43.9171 21.2927 44.1595C21.5429 44.3626 21.7061 44.504 21.7061 44.504C21.7061 44.504 21.8729 44.6346 22.1159 44.8666C22.3588 45.0987 22.6815 45.3707 23.0006 45.6644C23.4101 46.0741 23.8542 46.4477 24.3278 46.7813C24.217 46.6418 24.0957 46.5109 23.9652 46.3896L23.1239 45.5411C22.8157 45.2329 22.5039 44.9247 22.2645 44.7035C22.0252 44.4823 21.8584 44.3409 21.8584 44.3409C21.8584 44.3409 21.688 44.2031 21.4269 44.0073C21.1065 43.7685 20.7641 43.5609 20.4043 43.3872C20.0518 43.2051 19.6624 43.1059 19.2657 43.0971C19.1363 43.0903 19.0066 43.1037 18.8813 43.137C18.8289 43.1327 18.7761 43.1376 18.7254 43.1515Z" fill="#DB9289"/>
<g style="mix-blend-mode:screen">
<g style="mix-blend-mode:screen">
<path d="M17.7863 44.932C17.9023 44.8522 18.1489 45.019 18.294 45.2946C18.439 45.5702 18.4934 45.8675 18.3737 45.9437C18.2541 46.0198 18.0111 45.8566 17.8661 45.581C17.721 45.3055 17.6666 45.0081 17.7863 44.932Z" fill="#FAD0BF"/>
</g>
<g style="mix-blend-mode:screen">
<path d="M17.275 43.6845C17.3657 43.641 17.5252 43.7752 17.6376 43.9891C17.75 44.2031 17.7464 44.4097 17.6376 44.4569C17.5288 44.504 17.391 44.3662 17.275 44.1523C17.159 43.9383 17.1843 43.7317 17.275 43.6845Z" fill="#FAD0BF"/>
</g>
</g>
<path d="M39.9457 52.9421L39.2204 52.4635C39.1661 52.4272 39.1189 52.3873 39.0681 52.3474L39.0101 52.536C35.6523 50.8716 32.4831 52.061 32.037 53.1597C31.9972 53.254 32.1313 53.3519 32.2365 53.4353L39.0899 54.1968H39.4779C39.893 53.9284 40.2827 53.6225 40.6419 53.283C40.3929 53.2079 40.1577 53.0928 39.9457 52.9421Z" fill="#DB9289"/>
<path d="M33.7884 53.0255C33.9941 52.926 34.2075 52.8436 34.4266 52.7789L34.724 52.6919L35.0285 52.6629C35.2518 52.6443 35.4762 52.6443 35.6994 52.6629C36.0268 52.6817 36.3462 52.7721 36.6349 52.9276C36.6349 52.9675 36.1635 52.8442 35.6921 52.8478C35.477 52.8527 35.2625 52.8733 35.0503 52.9094L34.7602 52.9602L34.4737 53.0219C34.2618 53.0691 34.0534 53.1309 33.85 53.2068C33.404 53.3808 33.0088 53.6746 32.9834 53.6419C33.2075 53.3844 33.4813 53.1747 33.7884 53.0255Z" fill="#DB9289"/>
<path d="M32.4214 53.1524C32.2691 53.2757 32.1784 53.3809 32.1639 53.3664C32.2085 53.2563 32.2766 53.1573 32.3634 53.0763C32.5344 52.8871 32.7338 52.7256 32.9544 52.5976C33.1674 52.4703 33.3921 52.3634 33.6253 52.2785C33.8102 52.206 33.9408 52.1697 33.9408 52.1697C34.2838 52.0902 34.6333 52.0417 34.9851 52.0247C35.3336 51.9884 35.6859 52.0204 36.0222 52.119C36.0222 52.1516 35.5036 52.119 34.996 52.2096C34.6576 52.2563 34.3231 52.3278 33.9951 52.4236C33.6609 52.5013 33.3362 52.6156 33.027 52.7644C32.8101 52.8687 32.6067 52.999 32.4214 53.1524Z" fill="#DB9289"/>
<path opacity="0.2" d="M39.9457 52.9421L39.2204 52.4634C39.166 52.4271 39.1189 52.3873 39.0681 52.3474L39.0101 52.5359C38.5814 52.3243 38.1348 52.1508 37.6757 52.0174C38.3538 52.7789 37.7446 53.4679 36.9831 53.9646L39.0899 54.1967H39.4779C39.893 53.9284 40.2827 53.6225 40.6419 53.2829C40.3928 53.2078 40.1577 53.0927 39.9457 52.9421Z" fill="#DB9289"/>
<path d="M38.7418 52.3945C38.7418 52.3945 44.1157 48.4928 46.3313 46.8502C49.1343 44.7688 51.1613 41.857 53.1448 43.4307C53.4053 43.685 53.6107 43.9901 53.7482 44.327C53.8857 44.664 53.9525 45.0257 53.9443 45.3896C53.9362 45.7535 53.8533 46.1118 53.7008 46.4423C53.5482 46.7728 53.3294 47.0684 53.0578 47.3107C51.0743 49.345 41.4541 53.9828 39.496 54.2004C37.5379 54.4179 38.7418 52.3945 38.7418 52.3945Z" fill="#DB9289"/>
<path opacity="0.2" d="M53.8882 43.9927C53.783 45.5048 52.7387 46.1938 51.7125 46.9843C49.6129 48.6088 47.187 49.8018 44.8228 50.9404C42.9517 51.8542 40.7543 53.1669 38.6583 53.4062C38.5459 53.4062 38.4444 53.4062 38.3501 53.4062C38.3066 53.874 38.506 54.3019 39.4634 54.1895C41.4251 53.9683 51.0416 49.3304 53.0251 47.2998C53.4493 46.8746 53.7528 46.3442 53.9044 45.7631C54.0561 45.182 54.0505 44.571 53.8882 43.9927Z" fill="#DB9289"/>
<path d="M52.0244 43.1515C51.9754 43.1617 51.9247 43.1617 51.8757 43.1515C51.7553 43.1363 51.6335 43.1363 51.5131 43.1515C51.1293 43.1957 50.7588 43.3192 50.4253 43.5141C50.0846 43.7011 49.7607 43.9171 49.4571 44.1595C49.2069 44.3626 49.0437 44.504 49.0437 44.504C49.0437 44.504 48.8769 44.6346 48.6303 44.8666C48.3837 45.0987 48.0683 45.3707 47.7492 45.6644C47.3396 46.0741 46.8956 46.4477 46.422 46.7813C46.5386 46.6411 46.6659 46.5102 46.8027 46.3896L47.644 45.5411C47.9522 45.2329 48.2641 44.9247 48.5034 44.7035C48.7427 44.4823 48.9095 44.3409 48.9095 44.3409C48.9095 44.3409 49.08 44.2031 49.341 44.0073C49.6606 43.7692 50.0018 43.5616 50.36 43.3872C50.7139 43.2054 51.1045 43.1062 51.5022 43.0971C51.6316 43.0903 51.7613 43.1037 51.8866 43.137C51.933 43.1347 51.9795 43.1396 52.0244 43.1515Z" fill="#DB9289"/>
<g style="mix-blend-mode:screen">
<g style="mix-blend-mode:screen">
<path d="M52.9635 44.932C52.8475 44.8522 52.619 45.019 52.4559 45.2946C52.2927 45.5702 52.2564 45.8675 52.3761 45.9437C52.4958 46.0198 52.7206 45.8566 52.8837 45.581C53.0469 45.3055 53.0832 45.0081 52.9635 44.932Z" fill="#FAD0BF"/>
</g>
<g style="mix-blend-mode:screen">
<path d="M53.4748 43.6846C53.3805 43.6411 53.2246 43.7752 53.1122 43.9892C52.9998 44.2031 52.9998 44.4098 53.094 44.4569C53.1883 44.5041 53.3406 44.3663 53.4567 44.1523C53.5727 43.9384 53.5654 43.7317 53.4748 43.6846Z" fill="#FAD0BF"/>
</g>
</g>
<path d="M37.8932 19.625H33.1104V24.97H37.8932V19.625Z" fill="#DB9289"/>
<path opacity="0.4" d="M33.1104 21.9385C33.8566 22.1592 34.6312 22.2691 35.4093 22.2649C36.2497 22.271 37.0862 22.1488 37.8896 21.9022V18.9687H33.1104V21.9385Z" fill="#DB9289"/>
<path d="M30.0463 1.57405C29.6837 1.4 25.8182 2.52047 24.0087 9.33401C22.3443 15.5927 24.8428 18.9941 27.3158 20.372C29.4915 21.5795 33.5818 21.7391 34.0967 19.9006C34.6116 18.0621 32.1132 2.53861 30.0463 1.57405Z" fill="#DB9289"/>
<g style="mix-blend-mode:multiply" opacity="0.4">
<path d="M25.0204 18.3341C25.6276 19.1716 26.4095 19.8669 27.3122 20.372C29.4879 21.5795 33.5782 21.7391 34.0931 19.9006C34.4484 18.7149 33.5129 11.8796 32.2727 6.89001C30.6591 11.1761 28.342 15.1468 25.0204 18.3341Z" fill="#DB9289"/>
</g>
<path d="M29.8577 21.3221C29.7091 21.3031 29.5623 21.2715 29.4189 21.2278C29.0357 21.131 28.6591 21.0099 28.2912 20.8652C27.1605 20.4218 26.1406 19.7361 25.3033 18.8563C24.467 17.9591 23.8708 16.8652 23.57 15.6762C23.4759 15.2911 23.4104 14.8996 23.3742 14.5049C23.3742 14.3635 23.3452 14.2475 23.3379 14.1713C23.3354 14.1315 23.3354 14.0915 23.3379 14.0517C23.3379 14.0517 23.3379 13.8885 23.3379 13.5984C23.3379 13.3083 23.3633 12.9022 23.3887 12.409C23.454 11.2048 23.6361 10.0098 23.9326 8.84088C24.0094 8.5248 24.105 8.21361 24.2191 7.90896C24.3084 7.60577 24.4212 7.30996 24.5563 7.02418L24.9189 6.21918C25.0676 5.97622 25.2017 5.74778 25.3287 5.53746L25.5136 5.23649C25.573 5.14959 25.6371 5.06606 25.7058 4.98629C25.8291 4.83036 25.9378 4.69257 26.0285 4.58378C26.117 4.46354 26.2153 4.35075 26.3222 4.24655C26.2539 4.37544 26.1725 4.49695 26.0793 4.60917L25.7855 5.02617C25.7197 5.10723 25.6603 5.19332 25.6079 5.28363L25.4374 5.58823L25.0748 6.27357C24.966 6.5274 24.85 6.79936 24.734 7.07857C24.6048 7.37013 24.4969 7.67068 24.4112 7.97786C24.3073 8.28227 24.2201 8.59217 24.1502 8.90615C23.8814 10.0599 23.7212 11.2363 23.6715 12.4199C23.6715 12.9058 23.6244 13.3119 23.6425 13.5875C23.6606 13.8631 23.6425 14.0299 23.6425 14.0299C23.6384 14.0673 23.6384 14.105 23.6425 14.1423C23.6425 14.2185 23.6425 14.3272 23.6715 14.4687C23.7035 14.8534 23.7641 15.2352 23.8528 15.6109C24.1226 16.7588 24.6734 17.8216 25.4556 18.704C26.2565 19.5797 27.2341 20.2755 28.3239 20.7455C29.234 21.1299 29.8686 21.2894 29.8577 21.3221Z" fill="#DB9289"/>
<g style="mix-blend-mode:screen">
<path d="M29.8577 21.3221C29.7091 21.3031 29.5623 21.2715 29.4189 21.2278C29.0357 21.131 28.6591 21.0099 28.2912 20.8652C27.1605 20.4218 26.1406 19.7361 25.3033 18.8563C24.467 17.9591 23.8708 16.8652 23.57 15.6762C23.4759 15.2911 23.4104 14.8996 23.3742 14.5049C23.3742 14.3635 23.3452 14.2475 23.3379 14.1713C23.3354 14.1315 23.3354 14.0915 23.3379 14.0517C23.3379 14.0517 23.3379 13.8885 23.3379 13.5984C23.3379 13.3083 23.3633 12.9022 23.3887 12.409C23.454 11.2048 23.6361 10.0098 23.9326 8.84088C24.0094 8.5248 24.105 8.21361 24.2191 7.90896C24.3084 7.60577 24.4212 7.30996 24.5563 7.02418L24.9189 6.21918C25.0676 5.97622 25.2017 5.74778 25.3287 5.53746L25.5136 5.23649C25.573 5.14959 25.6371 5.06606 25.7058 4.98629C25.8291 4.83036 25.9378 4.69257 26.0285 4.58378C26.117 4.46354 26.2153 4.35075 26.3222 4.24655C26.2539 4.37544 26.1725 4.49695 26.0793 4.60917L25.7855 5.02617C25.7197 5.10723 25.6603 5.19332 25.6079 5.28363L25.4374 5.58823L25.0748 6.27357C24.966 6.5274 24.85 6.79936 24.734 7.07857C24.6048 7.37013 24.4969 7.67068 24.4112 7.97786C24.3073 8.28227 24.2201 8.59217 24.1502 8.90615C23.8814 10.0599 23.7212 11.2363 23.6715 12.4199C23.6715 12.9058 23.6244 13.3119 23.6425 13.5875C23.6606 13.8631 23.6425 14.0299 23.6425 14.0299C23.6384 14.0673 23.6384 14.105 23.6425 14.1423C23.6425 14.2185 23.6425 14.3272 23.6715 14.4687C23.7035 14.8534 23.7641 15.2352 23.8528 15.6109C24.1226 16.7588 24.6734 17.8216 25.4556 18.704C26.2565 19.5797 27.2341 20.2755 28.3239 20.7455C29.234 21.1299 29.8686 21.2894 29.8577 21.3221Z" fill="#DB9289"/>
</g>
<path d="M41.0263 0.88144C41.3889 0.711011 45.2109 2.52046 47.0203 9.33399C48.6847 15.5855 46.1863 18.9941 43.7133 20.372C41.5376 21.5795 37.4473 21.739 36.9324 19.9006C36.4175 18.0621 38.9594 1.8605 41.0263 0.88144Z" fill="#DB9289"/>
<g style="mix-blend-mode:multiply" opacity="0.4">
<path d="M45.6895 10.0593C43.6407 7.44118 41.3381 4.45686 40.7035 1.15344C38.7055 3.49956 36.4428 18.1528 36.9323 19.9006C37.4473 21.7391 41.5521 21.5795 43.7132 20.372C45.8019 19.2189 47.9051 16.6008 47.5026 12.0536C46.8476 11.4367 46.2414 10.7699 45.6895 10.0593Z" fill="#DB9289"/>
</g>
<path d="M41.0842 21.3221C41.233 21.3038 41.3799 21.2723 41.523 21.2278C41.9064 21.1315 42.2831 21.0104 42.6507 20.8652C43.7824 20.4236 44.8027 19.7376 45.6387 18.8563C46.4716 17.9597 47.0642 16.867 47.3611 15.6798C47.4605 15.2903 47.5308 14.8939 47.5714 14.494C47.5714 14.3526 47.5968 14.2366 47.6077 14.1604C47.6186 14.0843 47.6077 14.0408 47.6077 14.0408C47.6077 14.0408 47.6077 13.8776 47.6077 13.5875C47.6077 13.2974 47.5823 12.8913 47.5569 12.3981C47.4876 11.1981 47.3005 10.0079 46.9985 8.84448C46.9246 8.52802 46.8301 8.21672 46.7157 7.91256C46.623 7.61046 46.5104 7.31488 46.3784 7.02778C46.2515 6.74857 46.1282 6.47661 46.0158 6.22278L45.6061 5.54106L45.4247 5.24009C45.3667 5.14581 45.2906 5.06966 45.2326 4.98989L44.9098 4.58738C44.8222 4.46535 44.7226 4.35238 44.6125 4.25015C44.6841 4.37706 44.7653 4.49829 44.8554 4.61277L45.1528 5.02977C45.2072 5.10955 45.2761 5.18933 45.3305 5.28723L45.4973 5.59183L45.878 6.27717L46.2189 7.08218C46.3406 7.36768 46.4435 7.66081 46.5271 7.9597C46.6315 8.26367 46.7175 8.57366 46.7846 8.888C47.0543 10.0417 47.2157 11.218 47.2668 12.4017C47.2668 12.8876 47.314 13.2938 47.2958 13.5694C47.2777 13.8449 47.2958 14.0117 47.2958 14.0117C47.2958 14.0117 47.2958 14.0516 47.2958 14.1242C47.2958 14.1967 47.2777 14.3091 47.2668 14.4505C47.2333 14.8353 47.1714 15.217 47.0819 15.5927C46.8151 16.7417 46.264 17.8053 45.4791 18.6859C44.6787 19.5605 43.7025 20.2562 42.6145 20.7274C41.7007 21.1299 41.0734 21.2894 41.0842 21.3221Z" fill="#DB9289"/>
<g style="mix-blend-mode:screen">
<path d="M41.0842 21.3221C41.233 21.3038 41.3799 21.2723 41.523 21.2278C41.9064 21.1315 42.2831 21.0104 42.6507 20.8652C43.7824 20.4236 44.8027 19.7376 45.6387 18.8563C46.4716 17.9597 47.0642 16.867 47.3611 15.6798C47.4605 15.2903 47.5308 14.8939 47.5714 14.494C47.5714 14.3526 47.5968 14.2366 47.6077 14.1604C47.6186 14.0843 47.6077 14.0408 47.6077 14.0408C47.6077 14.0408 47.6077 13.8776 47.6077 13.5875C47.6077 13.2974 47.5823 12.8913 47.5569 12.3981C47.4876 11.1981 47.3005 10.0079 46.9985 8.84448C46.9246 8.52802 46.8301 8.21672 46.7157 7.91256C46.623 7.61046 46.5104 7.31488 46.3784 7.02778C46.2515 6.74857 46.1282 6.47661 46.0158 6.22278L45.6061 5.54106L45.4247 5.24009C45.3667 5.14581 45.2906 5.06966 45.2326 4.98989L44.9098 4.58738C44.8222 4.46535 44.7226 4.35238 44.6125 4.25015C44.6841 4.37706 44.7653 4.49829 44.8554 4.61277L45.1528 5.02977C45.2072 5.10955 45.2761 5.18933 45.3305 5.28723L45.4973 5.59183L45.878 6.27717L46.2189 7.08218C46.3406 7.36768 46.4435 7.66081 46.5271 7.9597C46.6315 8.26367 46.7175 8.57366 46.7846 8.888C47.0543 10.0417 47.2157 11.218 47.2668 12.4017C47.2668 12.8876 47.314 13.2938 47.2958 13.5694C47.2777 13.8449 47.2958 14.0117 47.2958 14.0117C47.2958 14.0117 47.2958 14.0516 47.2958 14.1242C47.2958 14.1967 47.2777 14.3091 47.2668 14.4505C47.2333 14.8353 47.1714 15.217 47.0819 15.5927C46.8151 16.7417 46.264 17.8053 45.4791 18.6859C44.6787 19.5605 43.7025 20.2562 42.6145 20.7274C41.7007 21.1299 41.0734 21.2894 41.0842 21.3221Z" fill="#DB9289"/>
</g>
<path d="M28.3093 11.2668C28.3093 11.2668 25.8544 10.2877 25.1836 12.496C24.5128 14.7043 26.9967 17.482 28.545 16.6081C30.0934 15.7342 29.0962 11.7055 28.3093 11.2668Z" fill="#DB9289"/>
<path opacity="0.4" d="M28.3094 11.2667C28.0975 11.1908 27.879 11.1349 27.6567 11.0999C27.7445 11.3812 27.7969 11.6723 27.8126 11.9666L27.6929 13.0218C27.5677 13.3614 27.4248 13.6942 27.265 14.019C26.8982 14.5959 26.4015 15.079 25.8146 15.4296C26.5398 16.4703 27.6929 17.1085 28.5523 16.6226C30.0971 15.7342 29.0962 11.7055 28.3094 11.2667Z" fill="#DB9289"/>
<path opacity="0.2" d="M28.7046 13.6818C29.1651 14.6898 28.9874 15.6979 28.3057 15.9336C27.624 16.1693 26.7066 15.5492 26.2497 14.5412C25.7928 13.5331 25.9705 12.525 26.6486 12.2893C27.3267 12.0536 28.2477 12.6918 28.7046 13.6818Z" fill="#DB9289"/>
<path d="M27.8779 15.7632C27.8779 15.7632 27.9141 15.7995 27.9939 15.8394C28.1146 15.8968 28.25 15.9158 28.3819 15.8937C28.473 15.8707 28.5571 15.8255 28.6266 15.7623C28.6962 15.699 28.7491 15.6197 28.7808 15.5311C28.8574 15.3641 28.904 15.1849 28.9186 15.0017C28.9601 14.5153 28.9222 14.0254 28.8062 13.5513C28.8062 13.5513 28.8062 13.5077 28.759 13.428C28.7141 13.3145 28.649 13.21 28.5668 13.1197C28.3296 12.838 28.0387 12.6063 27.7111 12.438C27.5247 12.3376 27.3199 12.276 27.1091 12.2567C27.0132 12.2464 26.9161 12.2584 26.8256 12.2918C26.735 12.3251 26.6533 12.3789 26.587 12.4489C26.508 12.5352 26.4519 12.6399 26.4238 12.7535C26.4056 12.8333 26.3984 12.8768 26.4238 12.8804C26.4492 12.884 26.4854 12.6955 26.6812 12.5178C26.7387 12.4665 26.8071 12.429 26.8813 12.4083C26.9555 12.3875 27.0334 12.3841 27.1091 12.3981C27.2912 12.4277 27.4659 12.4917 27.624 12.5867C27.9132 12.7581 28.1667 12.9834 28.371 13.2503C28.434 13.329 28.4841 13.4171 28.5197 13.5114L28.5523 13.6202C28.5975 13.7591 28.6338 13.9008 28.6611 14.0444C28.7221 14.3585 28.7489 14.6782 28.7409 14.9981C28.7409 15.3317 28.643 15.7233 28.3783 15.7995C28.2108 15.8227 28.0403 15.8103 27.8779 15.7632Z" fill="#DB9289"/>
<path d="M27.12 15.5601C27.0891 15.3424 27.0891 15.1215 27.12 14.9038C27.155 14.7587 27.2205 14.6227 27.3122 14.5049C27.3404 14.4638 27.3733 14.4261 27.4101 14.3925L27.45 14.349C27.6083 14.1812 27.8067 14.0564 28.0265 13.9864C28.2726 13.9284 28.5244 13.898 28.7771 13.8957C28.5238 13.7796 28.2379 13.7552 27.9685 13.8268C27.7817 13.8693 27.6037 13.9441 27.4427 14.048C27.3713 14.0962 27.3034 14.1496 27.2397 14.2076L27.1961 14.2511C27.1555 14.2951 27.1202 14.3438 27.091 14.3961C27.0023 14.5392 26.9466 14.7002 26.9278 14.8675C26.9064 14.99 26.9126 15.1157 26.9458 15.2355C26.9791 15.3553 27.0386 15.4662 27.12 15.5601Z" fill="#DB9289"/>
<path d="M42.6689 11.2668C42.6689 11.2668 45.1238 10.2877 45.7946 12.496C46.4655 14.7043 43.9816 17.482 42.4332 16.6081C40.8848 15.7342 41.882 11.7055 42.6689 11.2668Z" fill="#DB9289"/>
<path opacity="0.4" d="M42.6689 11.2667C42.8819 11.1905 43.1017 11.1347 43.3252 11.0999C43.2385 11.3765 43.1861 11.6627 43.1693 11.9521C43.2056 12.3147 43.2454 12.6556 43.2853 13.0073C43.4118 13.3469 43.5558 13.6798 43.7168 14.0045C44.0817 14.583 44.5789 15.0665 45.1673 15.4151C44.4421 16.4558 43.2853 17.094 42.4259 16.6081C40.8848 15.7342 41.882 11.7055 42.6689 11.2667Z" fill="#DB9289"/>
<path opacity="0.2" d="M42.2737 13.6818C41.8168 14.6898 41.9945 15.6979 42.6726 15.9336C43.3507 16.1693 44.2717 15.5492 44.7322 14.5412C45.1927 13.5331 45.0114 12.525 44.3297 12.2893C43.648 12.0536 42.7306 12.6918 42.2737 13.6818Z" fill="#DB9289"/>
<path d="M43.1004 15.7632C43.1004 15.7632 43.0642 15.7995 42.9844 15.8394C42.8637 15.8968 42.7282 15.9158 42.5964 15.8937C42.5053 15.8707 42.4212 15.8255 42.3516 15.7623C42.2821 15.699 42.2292 15.6197 42.1975 15.5311C42.1225 15.3635 42.0759 15.1846 42.0597 15.0017C42.0162 14.5151 42.0555 14.0247 42.1758 13.5513L42.2193 13.428C42.2671 13.3159 42.3319 13.212 42.4115 13.1197C42.6495 12.8388 42.9402 12.6072 43.2672 12.438C43.4538 12.3381 43.6584 12.2764 43.8692 12.2567C43.9651 12.2464 44.0622 12.2584 44.1527 12.2918C44.2433 12.3251 44.3249 12.3789 44.3913 12.4489C44.4717 12.5342 44.528 12.6393 44.5545 12.7535C44.5545 12.8333 44.5799 12.8768 44.5545 12.8804C44.5291 12.884 44.4929 12.6955 44.2971 12.5178C44.2396 12.4665 44.1712 12.429 44.097 12.4083C44.0228 12.3875 43.9449 12.3841 43.8692 12.3981C43.6881 12.4272 43.5145 12.4913 43.3579 12.5867C43.0685 12.7592 42.8139 12.9842 42.6073 13.2503C42.5443 13.329 42.4942 13.4171 42.4586 13.5114C42.4368 13.5803 42.426 13.6202 42.426 13.6202C42.3832 13.7596 42.3481 13.9012 42.3208 14.0444C42.2566 14.3581 42.2286 14.6781 42.2374 14.9981C42.2374 15.3317 42.3389 15.7233 42.6 15.7995C42.7675 15.8231 42.9381 15.8107 43.1004 15.7632Z" fill="#DB9289"/>
<path d="M43.8764 15.5601C43.8365 15.5601 43.9671 15.2192 43.8764 14.9038C43.8403 14.7584 43.7735 14.6224 43.6806 14.5049C43.6524 14.4638 43.6195 14.4261 43.5827 14.3925C43.569 14.3793 43.5569 14.3648 43.5464 14.349C43.4973 14.2988 43.4453 14.2515 43.3905 14.2075C43.2642 14.1082 43.122 14.0309 42.9699 13.9791C42.7226 13.921 42.4696 13.8906 42.2156 13.8884C42.469 13.7723 42.7549 13.7479 43.0243 13.8195C43.2122 13.8621 43.3913 13.9369 43.5537 14.0407C43.6245 14.0883 43.6912 14.1416 43.7531 14.2003L43.7966 14.2511C43.8349 14.2962 43.8688 14.3447 43.8982 14.3961C43.9893 14.5426 44.0474 14.7072 44.0686 14.8784C44.0873 14.9991 44.0799 15.1225 44.0467 15.2401C44.0135 15.3578 43.9555 15.4669 43.8764 15.5601Z" fill="#DB9289"/>
<path d="M43.2563 12.0645C43.2563 18.044 39.6555 21.1698 35.4021 21.1698C31.1486 21.1698 27.8524 18.044 27.8524 12.0645C27.8524 6.085 31.3009 1.23322 35.5544 1.23322C39.8078 1.23322 43.2563 6.08138 43.2563 12.0645Z" fill="#DB9289"/>
<path opacity="0.2" d="M41.6354 12.3075C40.7824 12.3095 39.9575 12.6122 39.3056 13.1623C38.6537 13.7123 38.2166 14.4746 38.0711 15.3151C37.9256 16.1556 38.081 17.0204 38.5101 17.7576C38.9392 18.4948 39.6144 19.0572 40.417 19.3458C42.0307 17.928 43.1112 15.6943 43.2418 12.681C42.7421 12.4347 42.1924 12.3069 41.6354 12.3075Z" fill="#DB9289"/>
<path opacity="0.2" d="M29.4044 12.3075C28.8701 12.3123 28.3436 12.4361 27.8633 12.6701C27.9793 15.7197 28.9838 17.9715 30.543 19.393C31.36 19.1215 32.0539 18.5682 32.5003 17.8321C32.9467 17.0959 33.1167 16.225 32.9798 15.375C32.8428 14.525 32.4079 13.7515 31.7529 13.1928C31.0978 12.6341 30.2653 12.3267 29.4044 12.3256V12.3075Z" fill="#DB9289"/>
<g style="mix-blend-mode:screen">
<path d="M30.369 13.214C30.3364 13.3627 30.0753 13.4279 29.7925 13.3591C29.5096 13.2902 29.3066 13.1125 29.3428 12.9638C29.3791 12.8151 29.6365 12.7499 29.923 12.8188C30.2095 12.8877 30.4053 13.0545 30.369 13.214Z" fill="#FAD0BF"/>
</g>
<g style="mix-blend-mode:screen">
<path d="M41.6572 12.9493C41.6971 13.098 41.5013 13.2793 41.2185 13.3554C40.9356 13.4316 40.6745 13.3735 40.6347 13.2249C40.5948 13.0762 40.7942 12.8985 41.0734 12.8224C41.3526 12.7462 41.6173 12.8042 41.6572 12.9493Z" fill="#FAD0BF"/>
</g>
<path opacity="0.2" d="M34.666 13.9175C34.6413 14.0261 34.6428 14.139 34.6704 14.2469C34.6979 14.3548 34.7506 14.4547 34.8243 14.5382C34.8979 14.6218 34.9903 14.6867 35.0939 14.7275C35.1975 14.7684 35.3094 14.7841 35.4202 14.7733C36.3267 14.7733 36.1237 13.8196 36.1237 13.8196C36.1237 13.8196 37.2841 15.0779 35.6704 15.2265C34.0568 15.3752 34.3614 14.3708 34.666 13.9175Z" fill="#DB9289"/>
<path d="M36.7293 14.8675C36.6568 14.8965 36.4465 14.4578 36.1419 14.1423C36.0231 13.9901 35.872 13.8662 35.6995 13.7797C35.6521 13.7585 35.6021 13.7439 35.5508 13.7362H35.5C35.4366 13.7232 35.3712 13.7232 35.3078 13.7362C35.136 13.7776 34.9806 13.8699 34.8618 14.0009C34.55 14.3127 34.3324 14.7551 34.2635 14.7261C34.1946 14.6971 34.2635 14.2112 34.5717 13.7652C34.7131 13.5386 34.9244 13.3642 35.1737 13.2684C35.2656 13.2349 35.3623 13.2165 35.4601 13.214H35.5762L35.685 13.243C35.7731 13.272 35.8572 13.3123 35.9352 13.3627C36.1458 13.5019 36.3199 13.6897 36.4428 13.9102C36.7112 14.3635 36.7909 14.8675 36.7293 14.8675Z" fill="#DB9289"/>
<path d="M37.7845 15.6181C37.8171 15.6181 37.7845 15.8321 37.654 16.1077C37.4858 16.4466 37.2457 16.7448 36.9505 16.9816C36.6454 17.2322 36.2849 17.4062 35.8989 17.4892C35.7701 17.5173 35.639 17.5331 35.5073 17.5364H35.355L35.1991 17.5146C35.0758 17.4853 34.9546 17.4478 34.8364 17.4022C34.4811 17.2572 34.1554 17.0483 33.8755 16.7857C33.5965 16.5337 33.3644 16.2341 33.1902 15.901C33.056 15.629 33.0306 15.4223 33.0596 15.4114C33.0886 15.4006 33.1865 15.5746 33.3642 15.7922C33.5803 16.0593 33.8316 16.296 34.1112 16.4957C34.3786 16.6927 34.6779 16.8423 34.996 16.938C35.0943 16.9682 35.195 16.99 35.297 17.0033H35.4094H35.4384H35.5363C35.6389 17.0097 35.7419 17.0097 35.8445 17.0033C36.1674 16.9597 36.4769 16.8458 36.751 16.6697C37.036 16.4867 37.2884 16.2576 37.498 15.9916C37.6576 15.7777 37.7482 15.5927 37.7845 15.6181Z" fill="#DB9289"/>
<path d="M36.4283 17.9461C36.3761 18.1266 36.2758 18.2896 36.1382 18.4175C36.0498 18.5186 35.9442 18.6034 35.8263 18.6677C35.7863 18.6927 35.7438 18.7134 35.6994 18.7294H35.6486H35.5906C35.5426 18.7368 35.4936 18.7368 35.4456 18.7294C35.302 18.7117 35.1676 18.6496 35.0612 18.5517C34.91 18.4326 34.8049 18.2647 34.7639 18.0766C34.7965 18.0513 34.9524 18.2833 35.1664 18.4102C35.2525 18.4701 35.3552 18.5018 35.4601 18.5009C35.4913 18.5056 35.5231 18.5056 35.5544 18.5009H35.5906H35.6269C35.6618 18.4957 35.696 18.4859 35.7284 18.4719C35.8323 18.4268 35.9298 18.3683 36.0185 18.2978C36.2216 18.131 36.3956 17.9243 36.4283 17.9461Z" fill="#DB9289"/>
<path opacity="0.4" d="M33.9879 16.561C33.9879 16.561 35.5979 14.7987 37.11 16.6117C37.11 16.6117 36.4283 18.9542 35.4492 18.6496C34.4701 18.345 33.9879 16.561 33.9879 16.561Z" fill="#DB9289"/>
<path d="M31.3408 12.4271C31.0254 12.2938 30.7415 12.0958 30.5073 11.846C30.2731 11.5961 30.0938 11.3 29.981 10.9767L28.6212 11.303C28.6212 11.303 28.7808 11.5242 29.0418 11.818C29.2949 11.7907 29.5502 11.7907 29.8033 11.818C29.7526 11.847 29.5132 12.0391 29.3573 12.1806C30.4017 13.2176 32.3344 14.4832 33.5709 11.3683C33.5709 11.3502 32.3743 12.8296 31.3408 12.4271Z" fill="#DB9289"/>
<path d="M39.6374 12.4271C39.9528 12.2938 40.2368 12.0958 40.471 11.846C40.7052 11.5961 40.8845 11.3 40.9972 10.9767L42.357 11.303C42.357 11.303 42.1975 11.5242 41.9364 11.818C41.6845 11.7906 41.4304 11.7906 41.1785 11.818C41.2257 11.847 41.465 12.0391 41.6246 12.1806C40.5766 13.2176 38.6439 14.4832 37.4073 11.3683C37.4073 11.3502 38.604 12.8296 39.6374 12.4271Z" fill="#DB9289"/>
<g style="mix-blend-mode:multiply" opacity="0.3">
<path d="M35.5544 1.23322C31.8122 1.23322 28.6937 4.98628 27.9975 9.95773C28.7227 7.82193 30.0463 4.72157 32.1603 3.52857C32.2546 3.47418 34.2345 6.74496 34.394 6.96253C35.9424 9.09471 37.9948 11.0129 40.602 11.7019C41.2982 11.8868 42.3607 12.0645 42.9227 11.4698C43.0591 11.303 43.158 11.1089 43.2128 10.9005C42.7886 5.46493 39.525 1.23322 35.5544 1.23322Z" fill="#DB9289"/>
</g>
<path d="M32.6353 2.60751C32.726 2.55312 34.7095 5.8239 34.8691 6.04147C36.4174 8.17365 38.4698 10.0919 41.077 10.7808C41.7732 10.9658 42.8357 11.1616 43.3941 10.5488C43.822 10.081 43.8474 9.02579 43.9199 8.40209C44.1484 6.40409 43.9199 4.30455 42.8683 2.54949C40.6129 -1.24346 34.0858 0.105466 32.7042 0.881462C32.7042 0.881462 24.8681 0.319409 27.8488 11.2305C27.8488 11.2414 29.2558 4.50398 32.6353 2.60751Z" fill="#DB9289"/>
<g style="mix-blend-mode:multiply" opacity="0.4">
<path d="M38.0202 6.25902C36.1215 4.91895 34.7131 2.99481 34.0096 0.779909C33.9734 0.667498 33.948 0.551462 33.9226 0.435425C33.501 0.53787 33.0923 0.687486 32.7042 0.881441C32.1294 0.863933 31.5552 0.931133 30.9999 1.08088C31.367 1.83772 31.5236 2.67943 31.4532 3.51765C31.8025 3.16024 32.2005 2.85384 32.6353 2.60749C32.726 2.5531 34.7095 5.82388 34.869 6.04145C36.4174 8.17363 38.4698 10.0919 41.077 10.7808C41.7732 10.9658 42.8357 11.1616 43.3941 10.5488C43.822 10.081 43.8474 9.02577 43.9199 8.40207C43.9598 8.06484 43.9779 7.72398 43.9888 7.3795C42.9739 7.65599 41.9096 7.6988 40.8758 7.50473C39.842 7.31066 38.8657 6.88475 38.0202 6.25902Z" fill="#DB9289"/>
</g>
<g style="mix-blend-mode:multiply" opacity="0.4">
<path d="M27.4463 7.28526C27.3556 7.28526 27.2722 7.28526 27.1852 7.28526C27.2554 8.6249 27.478 9.95218 27.8488 11.2414C28.1903 9.74743 28.6761 8.29014 29.2992 6.89001C28.7195 7.1606 28.0859 7.29576 27.4463 7.28526Z" fill="#DB9289"/>
</g>
<path d="M27.5588 11.633C27.3909 11.1374 27.2624 10.6294 27.1744 10.1136C27.0718 9.59716 26.998 9.07541 26.9532 8.55076C26.9532 8.55076 26.9532 8.35133 26.9532 8.05036C26.9532 7.97783 26.9532 7.89806 26.9532 7.81103C26.9532 7.72763 26.9822 7.63697 26.9967 7.54269C27.033 7.36139 27.0475 7.16195 27.1055 6.96976L27.2868 6.41496C27.3433 6.25555 27.4162 6.10243 27.5044 5.95807C27.6458 5.69698 27.7437 5.53018 27.7654 5.54106C27.7391 5.70298 27.6903 5.86042 27.6204 6.00883C27.5528 6.15858 27.4982 6.31387 27.4572 6.47298L27.3303 7.02053C27.2904 7.20546 27.2868 7.38314 27.265 7.57533C27.265 7.66236 27.2469 7.74938 27.2397 7.82916C27.2324 7.90894 27.2397 7.98871 27.2397 8.06123C27.2397 8.3477 27.2397 8.53626 27.2397 8.53626C27.2397 8.53626 27.265 9.305 27.3666 10.0774C27.4739 10.5896 27.5382 11.11 27.5588 11.633Z" fill="#DB9289"/>
<path d="M43.3143 5.19297C43.4053 5.31763 43.4853 5.44987 43.5537 5.58822C43.745 5.94606 43.9051 6.31973 44.0323 6.70507C44.2155 7.25264 44.3145 7.82483 44.326 8.40211C44.3548 9.08369 44.1572 9.75562 43.764 10.3131C43.5488 10.5949 43.262 10.814 42.9336 10.9477C42.6181 11.0735 42.2793 11.1303 41.94 11.1145C41.3524 11.0789 40.7778 10.926 40.2502 10.6648C39.8733 10.4913 39.5097 10.2901 39.1624 10.0629L38.7998 9.81268L38.4372 9.54435C38.2015 9.37029 37.8679 9.11646 37.4835 8.79373C36.5411 8.00756 35.671 7.13866 34.8835 6.19741C34.4639 5.69358 34.074 5.16568 33.7159 4.61641C33.4064 4.13542 33.1349 3.63107 32.9037 3.10793C32.7993 2.9018 32.7096 2.68853 32.6353 2.46973C32.5728 2.3055 32.5219 2.13707 32.483 1.96569C32.441 1.81862 32.4119 1.66817 32.396 1.51605C32.5692 2.03888 32.7701 2.5521 32.9979 3.05354C33.2483 3.55603 33.5331 4.04066 33.8501 4.504C34.2164 5.03678 34.6136 5.54773 35.0395 6.03423C35.8356 6.94685 36.7105 7.78773 37.6539 8.54715C38.0383 8.859 38.3791 9.10558 38.6076 9.27238L38.9702 9.52984L39.3328 9.78367C39.6613 10.0055 40.0041 10.2054 40.359 10.382C40.849 10.6338 41.3837 10.7866 41.9328 10.8316C42.2372 10.8514 42.5423 10.8069 42.8284 10.7011C43.1127 10.5831 43.3623 10.3947 43.5537 10.1535C43.9278 9.64173 44.1239 9.02145 44.1121 8.3876C44.1159 7.82567 44.0377 7.26618 43.88 6.72683C43.7179 6.20619 43.529 5.69422 43.3143 5.19297Z" fill="#DB9289"/>
<g style="mix-blend-mode:screen">
<path d="M27.5588 11.633C27.3909 11.1374 27.2624 10.6294 27.1744 10.1136C27.0718 9.59716 26.998 9.07541 26.9532 8.55076C26.9532 8.55076 26.9532 8.35133 26.9532 8.05036C26.9532 7.97783 26.9532 7.89806 26.9532 7.81103C26.9532 7.72763 26.9822 7.63697 26.9967 7.54269C27.033 7.36139 27.0475 7.16195 27.1055 6.96976L27.2868 6.41496C27.3433 6.25555 27.4162 6.10243 27.5044 5.95807C27.6458 5.69698 27.7437 5.53018 27.7654 5.54106C27.7391 5.70298 27.6903 5.86042 27.6204 6.00883C27.5528 6.15858 27.4982 6.31387 27.4572 6.47298L27.3303 7.02053C27.2904 7.20546 27.2868 7.38314 27.265 7.57533C27.265 7.66236 27.2469 7.74938 27.2397 7.82916C27.2324 7.90894 27.2397 7.98871 27.2397 8.06123C27.2397 8.3477 27.2397 8.53626 27.2397 8.53626C27.2397 8.53626 27.265 9.305 27.3666 10.0774C27.4739 10.5896 27.5382 11.11 27.5588 11.633Z" fill="#DB9289"/>
<path d="M43.3143 5.19297C43.4053 5.31763 43.4853 5.44987 43.5537 5.58822C43.745 5.94606 43.9051 6.31973 44.0323 6.70507C44.2155 7.25264 44.3145 7.82483 44.326 8.40211C44.3548 9.08369 44.1572 9.75562 43.764 10.3131C43.5488 10.5949 43.262 10.814 42.9336 10.9477C42.6181 11.0735 42.2793 11.1303 41.94 11.1145C41.3524 11.0789 40.7778 10.926 40.2502 10.6648C39.8733 10.4913 39.5097 10.2901 39.1624 10.0629L38.7998 9.81268L38.4372 9.54435C38.2015 9.37029 37.8679 9.11646 37.4835 8.79373C36.5411 8.00756 35.671 7.13866 34.8835 6.19741C34.4639 5.69358 34.074 5.16568 33.7159 4.61641C33.4064 4.13542 33.1349 3.63107 32.9037 3.10793C32.7993 2.9018 32.7096 2.68853 32.6353 2.46973C32.5728 2.3055 32.5219 2.13707 32.483 1.96569C32.441 1.81862 32.4119 1.66817 32.396 1.51605C32.5692 2.03888 32.7701 2.5521 32.9979 3.05354C33.2483 3.55603 33.5331 4.04066 33.8501 4.504C34.2164 5.03678 34.6136 5.54773 35.0395 6.03423C35.8356 6.94685 36.7105 7.78773 37.6539 8.54715C38.0383 8.859 38.3791 9.10558 38.6076 9.27238L38.9702 9.52984L39.3328 9.78367C39.6613 10.0055 40.0041 10.2054 40.359 10.382C40.849 10.6338 41.3837 10.7866 41.9328 10.8316C42.2372 10.8514 42.5423 10.8069 42.8284 10.7011C43.1127 10.5831 43.3623 10.3947 43.5537 10.1535C43.9278 9.64173 44.1239 9.02145 44.1121 8.3876C44.1159 7.82567 44.0377 7.26618 43.88 6.72683C43.7179 6.20619 43.529 5.69422 43.3143 5.19297Z" fill="#DB9289"/>
</g>
<g style="mix-blend-mode:screen">
<path d="M40.5403 3.08254C40.4388 3.22034 40.1378 3.18045 39.8695 2.98464C39.6011 2.78883 39.467 2.52412 39.5685 2.3827C39.67 2.24128 39.971 2.28479 40.2393 2.47698C40.5077 2.66916 40.6418 2.94112 40.5403 3.08254Z" fill="#DB9289"/>
</g>
<g style="mix-blend-mode:screen">
<path d="M41.4976 4.05074C41.4142 4.14502 41.2003 4.09425 41.019 3.93833C40.8376 3.7824 40.7615 3.57571 40.8449 3.48143C40.9283 3.38715 41.1422 3.43792 41.3199 3.59747C41.4976 3.75702 41.581 3.95646 41.4976 4.05074Z" fill="#DB9289"/>
</g>
<path d="M32.998 7.49556C33.0669 7.78928 32.697 8.13377 32.1676 8.26068C31.6382 8.3876 31.1523 8.26068 31.0797 7.96334C31.0072 7.66599 31.3807 7.32514 31.9101 7.19822C32.4396 7.0713 32.9255 7.20185 32.998 7.49556Z" fill="#DB9289"/>
<path d="M37.9766 7.49556C37.9077 7.78928 38.2776 8.13377 38.807 8.26068C39.3364 8.3876 39.8223 8.26068 39.8949 7.96334C39.9674 7.66599 39.5939 7.32514 39.0645 7.19822C38.5351 7.0713 38.0492 7.20185 37.9766 7.49556Z" fill="#DB9289"/>
<g style="mix-blend-mode:multiply">
<path d="M32.998 7.49556C33.0669 7.78928 32.697 8.13377 32.1676 8.26068C31.6382 8.3876 31.1523 8.26068 31.0797 7.96334C31.0072 7.66599 31.3807 7.32514 31.9101 7.19822C32.4396 7.0713 32.9255 7.20185 32.998 7.49556Z" fill="#DB9289"/>
</g>
<g style="mix-blend-mode:multiply">
<path d="M37.9766 7.49556C37.9077 7.78928 38.2776 8.13377 38.807 8.26068C39.3364 8.3876 39.8223 8.26068 39.8949 7.96334C39.9674 7.66599 39.5939 7.32514 39.0645 7.19822C38.5351 7.0713 38.0492 7.20185 37.9766 7.49556Z" fill="#DB9289"/>
</g>
</svg>
